<?xml version="1.0" encoding="utf-8"?>
<!-- Generator: Adobe Illustrator 27.5.0, SVG Export Plug-In . SVG Version: 6.00 Build 0)  -->
<svg version="1.1" id="Layer_1" xmlns="http://www.w3.org/2000/svg" xmlns:xlink="http://www.w3.org/1999/xlink" x="0px" y="0px"
	 viewBox="0 0 8000 5000" style="enable-background:new 0 0 8000 5000;" xml:space="preserve">
<g>
	<rect x="0.783" y="0.614" style="fill-rule:evenodd;clip-rule:evenodd;fill:#021B8C;" width="7999.018" height="4999.386"/>
	<g>
		<defs>
			<path id="SVGID_1_" d="M3041.722,2576.99c-97.938-71.077-188.06-156.053-274.616-248.608
				c-208.712-223.173-396.68-490.43-623.433-713.257C1528.699,1010.795,807.07,1189.368,0.783,1189.368v870.746
				c1374.157-184.718,1537.267,925.526,2226.021,1393.927C2935.992,3936.334,4196.138,3285.559,4663.712,5000h1434.082
				C6097.794,2559.552,4017.732,3285.346,3041.722,2576.99"/>
		</defs>
		<clipPath id="SVGID_00000153698649188908938000000013575114519412690828_">
			<use xlink:href="#SVGID_1_"  style="overflow:visible;"/>
		</clipPath>
		
			<linearGradient id="SVGID_00000026871735597764489460000013714077124644993692_" gradientUnits="userSpaceOnUse" x1="2423.2175" y1="4391.0571" x2="3421.0129" y2="2182.6753">
			<stop  offset="0" style="stop-color:#020C6A"/>
			<stop  offset="1" style="stop-color:#0463EE"/>
		</linearGradient>
		
			<rect x="0.783" y="1010.795" style="clip-path:url(#SVGID_00000153698649188908938000000013575114519412690828_);fill:url(#SVGID_00000026871735597764489460000013714077124644993692_);" width="6097.011" height="3989.205"/>
	</g>
	<g>
		<defs>
			<path id="SVGID_00000027598230955031609250000005531646969228285347_" d="M891.75,4192.134
				c-298.707-287.57-225.527-884.432-890.967-856.818V5000h1873.803C1666.33,4295.143,1173.74,4463.615,891.75,4192.134"/>
		</defs>
		<clipPath id="SVGID_00000080209048496496586950000012009428523349563819_">
			<use xlink:href="#SVGID_00000027598230955031609250000005531646969228285347_"  style="overflow:visible;"/>
		</clipPath>
		
			<linearGradient id="SVGID_00000181788540062762173670000000306734924657487294_" gradientUnits="userSpaceOnUse" x1="83.2062" y1="5076.3457" x2="1891.9664" y2="3123.6094">
			<stop  offset="0" style="stop-color:#0049E6"/>
			<stop  offset="1" style="stop-color:#2DD9FF"/>
		</linearGradient>
		
			<rect x="0.783" y="3307.703" style="clip-path:url(#SVGID_00000080209048496496586950000012009428523349563819_);fill:url(#SVGID_00000181788540062762173670000000306734924657487294_);" width="1873.803" height="1692.297"/>
	</g>
	<g>
		<defs>
			<path id="SVGID_00000091727729258010184560000002563228300389989027_" d="M0.783,3335.316
				c665.439-27.614,592.26,569.248,890.967,856.818c281.99,271.481,774.58,103.008,982.836,807.866h1463.658
				c-229.799-804.296-960.832-728.212-1464.975-977.445c-688.934-340.581-501.834-486.2-938.921-927.896
				C468.814,2624.22,0.783,2732.264,0.783,2732.264V3335.316z"/>
		</defs>
		<clipPath id="SVGID_00000164514806296380162290000006147636073415234176_">
			<use xlink:href="#SVGID_00000091727729258010184560000002563228300389989027_"  style="overflow:visible;"/>
		</clipPath>
		
			<linearGradient id="SVGID_00000166669743615271111330000005280459117848793487_" gradientUnits="userSpaceOnUse" x1="547.6851" y1="5389.061" x2="2891.9702" y2="2093.7065">
			<stop  offset="0" style="stop-color:#0049E6"/>
			<stop  offset="1" style="stop-color:#2DD9FF"/>
		</linearGradient>
		
			<rect x="0.783" y="2624.22" style="clip-path:url(#SVGID_00000164514806296380162290000006147636073415234176_);fill:url(#SVGID_00000166669743615271111330000005280459117848793487_);" width="3337.461" height="2375.78"/>
	</g>
	<g>
		<defs>
			<path id="SVGID_00000150803947919665193210000003368490853319944857_" d="M934.348,3094.659
				c437.087,441.696,249.986,587.314,938.921,927.896c504.143,249.233,1235.177,173.149,1464.975,977.445h1325.469
				c-467.574-1714.441-1727.72-1063.666-2436.908-1545.959C1538.051,2985.64,1374.94,1875.396,0.783,2060.114v672.151
				C0.783,2732.264,468.814,2624.22,934.348,3094.659"/>
		</defs>
		<clipPath id="SVGID_00000158016067955621537290000010507979798752119478_">
			<use xlink:href="#SVGID_00000150803947919665193210000003368490853319944857_"  style="overflow:visible;"/>
		</clipPath>
		
			<linearGradient id="SVGID_00000181084155845220055170000016147699846189331371_" gradientUnits="userSpaceOnUse" x1="1767.7853" y1="4474.4028" x2="3077.8503" y2="2068.3074">
			<stop  offset="0" style="stop-color:#0131B8"/>
			<stop  offset="1" style="stop-color:#0463EE"/>
		</linearGradient>
		
			<rect x="0.783" y="1875.396" style="clip-path:url(#SVGID_00000158016067955621537290000010507979798752119478_);fill:url(#SVGID_00000181084155845220055170000016147699846189331371_);" width="4662.929" height="3124.604"/>
	</g>
	<g>
		<defs>
			<path id="SVGID_00000025419055091507456680000004373359249026588315_" d="M4958.86,2423.625
				c97.938,71.077,188.061,156.052,274.616,248.607c208.712,223.173,396.681,490.43,623.434,713.258
				c614.977,604.327,1336.605,425.756,2142.892,425.756v-870.745c-1374.156,184.718-1537.267-925.527-2226.022-1393.927
				C5064.59,1064.281,3804.444,1715.056,3336.87,0.614H1902.788C1902.788,2441.063,3982.853,1715.268,4958.86,2423.625"/>
		</defs>
		<clipPath id="SVGID_00000122717373068381021840000003422168953470766003_">
			<use xlink:href="#SVGID_00000025419055091507456680000004373359249026588315_"  style="overflow:visible;"/>
		</clipPath>
		
			<linearGradient id="SVGID_00000035530277498413826760000015591749057489565106_" gradientUnits="userSpaceOnUse" x1="5577.3828" y1="609.57" x2="4579.5884" y2="2817.8677">
			<stop  offset="0" style="stop-color:#020C6A"/>
			<stop  offset="1" style="stop-color:#0463EE"/>
		</linearGradient>
		
			<rect x="1902.788" y="0.614" style="clip-path:url(#SVGID_00000122717373068381021840000003422168953470766003_);fill:url(#SVGID_00000035530277498413826760000015591749057489565106_);" width="6097.013" height="3989.204"/>
	</g>
	<g>
		<defs>
			<path id="SVGID_00000155859263272446944570000013493949553621357455_" d="M7108.832,808.479
				c298.707,287.571,225.529,884.432,890.969,856.819V0.614H6125.998C6334.251,705.471,6826.844,536.999,7108.832,808.479"/>
		</defs>
		<clipPath id="SVGID_00000098928540393122838660000014282081283220882619_">
			<use xlink:href="#SVGID_00000155859263272446944570000013493949553621357455_"  style="overflow:visible;"/>
		</clipPath>
		
			<linearGradient id="SVGID_00000096033842594351134300000012871965034381419929_" gradientUnits="userSpaceOnUse" x1="7917.3989" y1="-75.7156" x2="6108.646" y2="1876.9309">
			<stop  offset="0" style="stop-color:#0049E6"/>
			<stop  offset="1" style="stop-color:#2DD9FF"/>
		</linearGradient>
		
			<rect x="6125.998" y="0.614" style="clip-path:url(#SVGID_00000098928540393122838660000014282081283220882619_);fill:url(#SVGID_00000096033842594351134300000012871965034381419929_);" width="1873.803" height="1692.297"/>
	</g>
	<g>
		<defs>
			<path id="SVGID_00000144301505691966093270000009004233877674064013_" d="M7999.801,1665.298
				c-665.439,27.613-592.262-569.248-890.969-856.819c-281.988-271.48-774.581-103.008-982.834-807.865h-1463.66
				c229.799,804.296,960.832,728.212,1464.978,977.445c688.934,340.583,501.832,486.2,938.918,927.896
				c465.534,470.439,933.566,362.394,933.566,362.394V1665.298z"/>
		</defs>
		<clipPath id="SVGID_00000106148187133729069400000001573985275811050908_">
			<use xlink:href="#SVGID_00000144301505691966093270000009004233877674064013_"  style="overflow:visible;"/>
		</clipPath>
		
			<linearGradient id="SVGID_00000043452230180618017270000012463897903711414422_" gradientUnits="userSpaceOnUse" x1="7452.9331" y1="-388.4371" x2="5108.5752" y2="2906.8977">
			<stop  offset="0" style="stop-color:#0049E6"/>
			<stop  offset="1" style="stop-color:#2DD9FF"/>
		</linearGradient>
		
			<rect x="4662.338" y="0.614" style="clip-path:url(#SVGID_00000106148187133729069400000001573985275811050908_);fill:url(#SVGID_00000043452230180618017270000012463897903711414422_);" width="3337.463" height="2375.781"/>
	</g>
	<g>
		<defs>
			<path id="SVGID_00000031200884908562231490000007463474105440430491_" d="M7066.234,1905.955
				c-437.087-441.697-249.984-587.314-938.918-927.896C5623.17,728.826,4892.137,804.91,4662.338,0.614H3336.87
				c467.574,1714.442,1727.72,1063.666,2436.908,1545.96c688.755,468.4,851.866,1578.645,2226.022,1393.927v-672.152
				C7999.801,2268.349,7531.768,2376.395,7066.234,1905.955"/>
		</defs>
		<clipPath id="SVGID_00000153690931345843763880000009832647511803168664_">
			<use xlink:href="#SVGID_00000031200884908562231490000007463474105440430491_"  style="overflow:visible;"/>
		</clipPath>
		
			<linearGradient id="SVGID_00000093860750572614490660000006858301117059543436_" gradientUnits="userSpaceOnUse" x1="6232.8208" y1="526.2337" x2="4922.6748" y2="2932.3284">
			<stop  offset="0" style="stop-color:#0131B8"/>
			<stop  offset="1" style="stop-color:#0463EE"/>
		</linearGradient>
		
			<rect x="3336.87" y="0.614" style="clip-path:url(#SVGID_00000153690931345843763880000009832647511803168664_);fill:url(#SVGID_00000093860750572614490660000006858301117059543436_);" width="4662.931" height="3124.604"/>
	</g>
</g>
</svg>
